# File created by Blade
# Date/Time:  Thu Jan 22 16:36:26 2015
# Frame Rate: 120.000 fps
#------------------------------------------------------
:FULLY-SPECIFIED
:DEGREES
2124
root -0.542756 6.302656 -7.412374 -15.849155 -26.982845 43.401223
RightUpLeg -98.888533 7.497227 42.933273
RightLeg 145.188233 -0.000000 -0.000000
RightFoot -6.038338 21.015332 -77.174537
RightToeBase -294.282056 -0.000000 -0.000000
LeftUpLeg -14.079289 -28.036144 39.709985
LeftLeg 153.193799 -0.000000 -0.000000
LeftFoot 28.288529 12.351154 -15.442020
LeftToeBase 10.653710 -0.000000 -0.000000
Spine 36.226717 6.960805 -7.473000
RightShoulder 1.654722 -21.559883 -34.531425
RightArm 0.152651 -3.609167 76.312260
RightForeArm 1.374606 0.000000 61.170450
RightHand 30.392630 -0.000000 -69.835725
RightHandThumb1 -24.326973 -0.000000 -32.862282
LeftShoulder -32.420553 33.777192 -11.063578
LeftArm 23.727434 3.341976 -72.539984
LeftForeArm 22.587699 0.000000 56.591782
LeftHand -30.118681 -0.000000 -23.097985
LeftHandThumb1 -26.253704 0.000000 33.147579
Head -25.116757 16.080707 -37.604258
2125
root -0.555392 6.308313 -7.408628 -15.810021 -27.017079 43.514159
RightUpLeg -98.877680 7.604792 42.921966
RightLeg 145.160090 -0.000000 -0.000000
RightFoot -5.829074 21.007707 -77.038707
RightToeBase -294.276241 -0.000000 -0.000000
LeftUpLeg -14.090403 -28.074499 39.638734
LeftLeg 153.231430 -0.000000 -0.000000
LeftFoot 28.401154 12.215456 -15.435930
LeftToeBase 10.446886 -0.000000 -0.000000
Spine 36.098207 6.909314 -7.372726
RightShoulder 1.505572 -21.628098 -34.605410
RightArm 0.108517 -3.586144 76.439766
RightForeArm 1.132306 -0.000000 61.454310
RightHand 30.513131 -0.000000 -69.730765
RightHandThumb1 -24.326973 -0.000000 -32.862282
LeftShoulder -32.404373 33.728952 -11.050407
LeftArm 23.672877 3.366665 -72.659760
LeftForeArm 22.685163 -0.000000 56.487542
LeftHand -30.112565 -0.000000 -22.823813
LeftHandThumb1 -26.253704 0.000000 33.147579
Head -25.081166 16.074115 -37.688885
2126
root -0.571089 6.312944 -7.409381 -15.738549 -27.077886 43.607769
RightUpLeg -98.827574 7.759160 43.010140
RightLeg 145.097828 -0.000000 -0.000000
RightFoot -5.567026 20.993230 -77.126794
RightToeBase -294.024548 -0.000000 -0.000000
LeftUpLeg -14.104216 -27.981862 39.587210
LeftLeg 153.264779 -0.000000 -0.000000
LeftFoot 28.349052 12.382546 -15.518769
LeftToeBase 10.507689 -0.000000 -0.000000
Spine 35.928426 6.860634 -7.274618
RightShoulder 1.396232 -21.746485 -34.690759
RightArm 0.116722 -3.457098 76.599709
RightForeArm 0.750460 -0.000000 61.761377
RightHand 30.493951 0.000000 -69.851619
RightHandThumb1 -24.326973 -0.000000 -32.862282
LeftShoulder -32.423990 33.707933 -11.111533
LeftArm 23.642725 3.313335 -72.768437
LeftForeArm 22.814454 -0.000000 56.408844
LeftHand -29.985224 -0.000000 -22.925478
LeftHandThumb1 -26.253704 0.000000 33.147579
Head -25.012064 16.013645 -37.744869
2127
root -0.589262 6.314222 -7.415450 -15.594774 -27.217908 43.637137
RightUpLeg -98.687299 8.014366 43.422285
RightLeg 144.980122 -0.000000 -0.000000
RightFoot -4.615020 20.821417 -77.038241
RightToeBase -294.082478 -0.000000 -0.000000
LeftUpLeg -14.093286 -27.897213 39.646684
LeftLeg 153.281765 -0.000000 -0.000000
LeftFoot 28.328185 12.352079 -15.548691
LeftToeBase 10.506676 -0.000000 -0.000000
Spine 35.708247 6.910502 -7.060308
RightShoulder 1.234496 -21.824917 -34.758407
RightArm 0.043845 -3.333681 76.775023
RightForeArm 0.377168 -0.000000 62.050964
RightHand 30.483148 -0.000000 -69.843955
RightHandThumb1 -24.326973 -0.000000 -32.862282
LeftShoulder -32.436890 33.752407 -11.206334
LeftArm 23.705889 3.274029 -72.858962
LeftForeArm 23.119935 0.000000 56.308428
LeftHand -30.016573 -0.000000 -23.178923
LeftHandThumb1 -26.253704 0.000000 33.147579
Head -24.916391 15.990912 -37.832360
2128
root -0.607118 6.316873 -7.413326 -15.537103 -27.279898 43.715342
RightUpLeg -98.656319 8.162481 43.393348
RightLeg 144.942092 -0.000000 -0.000000
RightFoot -4.536381 20.813937 -76.911005
RightToeBase -294.009073 -0.000000 -0.000000
LeftUpLeg -14.080974 -27.899380 39.620506
LeftLeg 153.288144 -0.000000 -0.000000
LeftFoot 28.409835 12.250452 -15.548643
LeftToeBase 10.221290 -0.000000 -0.000000
Spine 35.552192 6.873534 -6.973156
RightShoulder 1.100222 -21.925235 -34.820313
RightArm 0.078423 -3.269854 76.927085
RightForeArm 0.064748 -0.000000 62.291676
RightHand 30.394517 0.000000 -69.975370
RightHandThumb1 -24.326973 -0.000000 -32.862282
LeftShoulder -32.554623 33.719011 -11.276274
LeftArm 23.763523 3.280338 -72.944144
LeftForeArm 23.159186 -0.000000 56.148328
LeftHand -30.038269 0.000000 -23.153916
LeftHandThumb1 -26.253704 0.000000 33.147579
Head -24.856240 15.993820 -37.852627
